<svg xmlns="http://www.w3.org/2000/svg" viewBox="0 0 300 360" width="300" height="360">

  <defs>
    <clipPath id="face-clip">
      <circle cx="150" cy="152" r="116"/>
    </clipPath>
  </defs>

  <!-- Coin face fill -->
  <circle cx="150" cy="152" r="118" fill="#FFFFFF"/>

  <!-- Bell curve (clipped to coin face) -->
  <g clip-path="url(#face-clip)">

    <!-- Baseline -->
    <line x1="32" y1="198" x2="268" y2="198"
      stroke="#1E293B" stroke-width="1" opacity="0.2"/>

    <!-- Bell curve -->
    <polyline points="32,195.99 33,195.85 34,195.71 35,195.55 36,195.39 37,195.21 38,195.03 39,194.84 40,194.63 41,194.41 42,194.19 43,193.95 44,193.7 45,193.43 46,193.15 47,192.86 48,192.55 49,192.23 50,191.89 51,191.54 52,191.16 53,190.78 54,190.37 55,189.95 56,189.5 57,189.04 58,188.56 59,188.05 60,187.53 61,186.99 62,186.42 63,185.83 64,185.22 65,184.58 66,183.93 67,183.24 68,182.54 69,181.81 70,181.05 71,180.27 72,179.46 73,178.63 74,177.77 75,176.88 76,175.97 77,175.04 78,174.07 79,173.08 80,172.07 81,171.03 82,169.96 83,168.86 84,167.74 85,166.6 86,165.43 87,164.24 88,163.02 89,161.78 90,160.51 91,159.23 92,157.92 93,156.59 94,155.24 95,153.88 96,152.49 97,151.09 98,149.67 99,148.24 100,146.8 101,145.34 102,143.87 103,142.4 104,140.91 105,139.42 106,137.92 107,136.42 108,134.92 109,133.42 110,131.92 111,130.42 112,128.93 113,127.45 114,125.97 115,124.51 116,123.06 117,121.62 118,120.2 119,118.8 120,117.42 121,116.06 122,114.72 123,113.41 124,112.13 125,110.88 126,109.67 127,108.48 128,107.33 129,106.22 130,105.15 131,104.12 132,103.13 133,102.18 134,101.28 135,100.43 136,99.62 137,98.86 138,98.16 139,97.51 140,96.91 141,96.36 142,95.87 143,95.43 144,95.06 145,94.73 146,94.47 147,94.26 148,94.12 149,94.03 150,94.0 151,94.03 152,94.12 153,94.26 154,94.47 155,94.73 156,95.06 157,95.43 158,95.87 159,96.36 160,96.91 161,97.51 162,98.16 163,98.86 164,99.62 165,100.43 166,101.28 167,102.18 168,103.13 169,104.12 170,105.15 171,106.22 172,107.33 173,108.48 174,109.67 175,110.88 176,112.13 177,113.41 178,114.72 179,116.06 180,117.42 181,118.8 182,120.2 183,121.62 184,123.06 185,124.51 186,125.97 187,127.45 188,128.93 189,130.42 190,131.92 191,133.42 192,134.92 193,136.42 194,137.92 195,139.42 196,140.91 197,142.4 198,143.87 199,145.34 200,146.8 201,148.24 202,149.67 203,151.09 204,152.49 205,153.88 206,155.24 207,156.59 208,157.92 209,159.23 210,160.51 211,161.78 212,163.02 213,164.24 214,165.43 215,166.6 216,167.74 217,168.86 218,169.96 219,171.03 220,172.07 221,173.08 222,174.07 223,175.04 224,175.97 225,176.88 226,177.77 227,178.63 228,179.46 229,180.27 230,181.05 231,181.81 232,182.54 233,183.24 234,183.93 235,184.58 236,185.22 237,185.83 238,186.42 239,186.99 240,187.53 241,188.05 242,188.56 243,189.04 244,189.5 245,189.95 246,190.37 247,190.78 248,191.16 249,191.54 250,191.89 251,192.23 252,192.55 253,192.86 254,193.15 255,193.43 256,193.7 257,193.95 258,194.19 259,194.41 260,194.63 261,194.84 262,195.03 263,195.21 264,195.39 265,195.55 266,195.71 267,195.85 268,195.99"
      fill="none" stroke="#1E293B" stroke-width="2.2"
      stroke-linecap="round" stroke-linejoin="round"/>

    <!-- Peak dot -->
    <circle cx="150" cy="94" r="4.5" fill="#1E293B"/>

  </g>

  <!-- Coin outer ring -->
  <circle cx="150" cy="152" r="118"
    fill="none" stroke="#1E293B" stroke-width="2.5"/>

  <!-- Coin inner ring detail (subtle dashed) -->
  <circle cx="150" cy="152" r="111"
    fill="none" stroke="#1E293B" stroke-width="1"
    stroke-dasharray="4,4" opacity="0.2"/>

  <!-- Title below coin -->
  <text
    x="150" y="306"
    text-anchor="middle"
    font-family="'Helvetica Neue', Helvetica, Arial, sans-serif"
    font-size="17"
    font-weight="400"
    letter-spacing="1"
    fill="#1E293B">tokencast</text>

</svg>
